<svg width="606" height="144" viewBox="0 0 606 144" fill="none" xmlns="http://www.w3.org/2000/svg">
<path d="M106.797 143.42H41.0413L0 31.9797H57.368L79.0869 101.48L98.7089 31.9797H157.874L177.496 101.63L198.167 31.9797H251.64L210.15 143.42H145.891L126.27 77.6644L106.797 143.42Z" fill="white"/>
<path d="M301.56 31.9797V143.42H251.232V31.9797H301.56Z" fill="white"/>
<path d="M308.759 143.42V31.9797H393.538C457.496 31.9797 475.62 56.994 475.62 84.7043V89.3477C475.62 115.71 460.941 143.42 393.538 143.42H308.759ZM359.237 64.1837V111.216H385.899C420.2 111.216 423.195 95.6387 423.195 87.7001V86.8013C423.195 78.8627 420.05 64.1837 385.899 64.1837H359.237Z" fill="white"/>
<path d="M475.01 31.9797H604.425V61.4875H524.739V72.4219H603.226V101.48H524.739V113.613H605.174V143.42H475.01V31.9797Z" fill="white"/>
<path d="M585.803 0H583.504C566.767 0 563.51 7.34608 563.51 13.1591V14.0534C563.51 20.1857 567.406 27.2124 583.568 27.2124H585.803C602.348 27.2124 605.989 20.1857 605.989 14.0534V13.0952C605.989 7.34608 602.731 0 585.803 0ZM584.781 23.2519H584.526C569.898 23.2519 568.939 17.8222 568.939 13.4785C568.939 9.19857 569.961 3.96049 584.526 3.96049H584.781C599.474 3.96049 600.496 9.07081 600.496 13.5423C600.496 17.8222 599.665 23.2519 584.781 23.2519ZM586.698 12.3286H583.376C582.162 12.3286 581.907 11.8815 581.907 11.1788C581.907 10.4761 582.162 10.029 583.376 10.029H586.698V12.3286ZM586.698 15.9059V20.4413H595.194V6.57953H579.927C574.497 6.57953 573.411 8.24038 573.411 10.2845V10.3484C573.411 12.3286 575.2 13.2229 576.988 13.4785C574.561 13.8617 573.347 15.0116 573.347 16.9279V18.8443C573.347 19.6108 573.219 19.9302 572.964 20.1857V20.4413H581.651C581.843 20.2496 581.907 19.9941 581.907 19.6747V18.0777C581.907 16.6085 582.098 15.9059 584.079 15.9059H586.698Z" fill="white"/>
<path d="M106.797 143.42H41.0413L0 31.9797H57.368L79.0869 101.48L98.7089 31.9797H157.874L177.496 101.63L198.167 31.9797H251.64L210.15 143.42H145.891L126.27 77.6644L106.797 143.42Z" fill="white"/>
<path d="M301.56 31.9797V143.42H251.232V31.9797H301.56Z" fill="white"/>
<path d="M308.759 143.42V31.9797H393.538C457.496 31.9797 475.62 56.994 475.62 84.7043V89.3477C475.62 115.71 460.941 143.42 393.538 143.42H308.759ZM359.237 64.1837V111.216H385.899C420.2 111.216 423.195 95.6387 423.195 87.7001V86.8013C423.195 78.8627 420.05 64.1837 385.899 64.1837H359.237Z" fill="white"/>
<path d="M475.01 31.9797H604.425V61.4875H524.739V72.4219H603.226V101.48H524.739V113.613H605.174V143.42H475.01V31.9797Z" fill="white"/>
<path d="M585.803 0H583.504C566.767 0 563.51 7.34608 563.51 13.1591V14.0534C563.51 20.1857 567.406 27.2124 583.568 27.2124H585.803C602.348 27.2124 605.989 20.1857 605.989 14.0534V13.0952C605.989 7.34608 602.731 0 585.803 0ZM584.781 23.2519H584.526C569.898 23.2519 568.939 17.8222 568.939 13.4785C568.939 9.19857 569.961 3.96049 584.526 3.96049H584.781C599.474 3.96049 600.496 9.07081 600.496 13.5423C600.496 17.8222 599.665 23.2519 584.781 23.2519ZM586.698 12.3286H583.376C582.162 12.3286 581.907 11.8815 581.907 11.1788C581.907 10.4761 582.162 10.029 583.376 10.029H586.698V12.3286ZM586.698 15.9059V20.4413H595.194V6.57953H579.927C574.497 6.57953 573.411 8.24038 573.411 10.2845V10.3484C573.411 12.3286 575.2 13.2229 576.988 13.4785C574.561 13.8617 573.347 15.0116 573.347 16.9279V18.8443C573.347 19.6108 573.219 19.9302 572.964 20.1857V20.4413H581.651C581.843 20.2496 581.907 19.9941 581.907 19.6747V18.0777C581.907 16.6085 582.098 15.9059 584.079 15.9059H586.698Z" fill="white"/>
</svg>
